<svg xmlns="http://www.w3.org/2000/svg" width="44" height="44" viewBox="0 0 44 44" fill="none"><path fill-rule="evenodd" clip-rule="evenodd" d="M43.9474 34.4189V43.9999H21.9677L43.9474 34.4189ZM21.9677 43.9999H0V34.4189L21.9677 43.9999Z" fill="#BDD63A"/><path d="M21.9677 6.73755C9.82537 6.73755 0 21.9934 0 21.9934C0 21.9934 9.83854 37.2493 21.9677 37.2493C34.0968 37.2493 43.9354 21.9934 43.9354 21.9934C43.9354 21.9934 34.0968 6.73755 21.9677 6.73755ZM21.9677 32.1002C16.4151 32.1002 11.8987 27.5913 11.8987 22.0198C11.8987 21.9307 11.9118 21.8537 11.9118 21.7635C12.3465 21.8911 12.8074 21.9813 13.2805 21.9813C16.0573 21.9813 18.3216 19.7274 18.3216 16.9345C18.3216 15.5386 17.7585 14.2703 16.8245 13.3606C18.3348 12.4641 20.0876 11.9383 21.9545 11.9383C27.5071 11.9383 32.0235 16.4472 32.0235 22.0187C32.0235 27.5903 27.5202 32.1002 21.9545 32.1002H21.9677Z" fill="#147641"/><path fill-rule="evenodd" clip-rule="evenodd" d="M21.9677 0L0 9.581V0H21.9677ZM43.9485 9.581L21.9677 0H43.9485V9.581Z" fill="#009344"/></svg>