<?xml version="1.0" encoding="UTF-8"?> <svg xmlns="http://www.w3.org/2000/svg" width="84.9" height="84.925" viewBox="0 0 84.9 84.925"><g id="wp-activity-log-card" transform="translate(-77.619 -33.612)"><path id="Path_1" data-name="Path 1" d="M162.519,76.075s-19,29.449-42.444,29.449S77.632,76.075,77.632,76.075v23.97l42.443,18.492,42.444-18.492Z" fill="#bdd63a"></path><path id="Path_2" data-name="Path 2" d="M120.063,46.625c23.443,0,42.443,29.45,42.443,29.45V52.1L120.063,33.612,77.619,52.1V76.075s19-29.45,42.444-29.45Z" fill="#009344"></path><path id="Path_3" data-name="Path 3" d="M120.075,95.562a19.455,19.455,0,1,0-9.906-36.169,9.708,9.708,0,0,1,2.88,6.9,8.973,8.973,0,0,1-2.816,6.28c-3.875,3.864-6.871,3.812-9.571,3.05,0,.168-.026.323-.026.491a19.447,19.447,0,0,0,19.439,19.448Z" fill="#384a2f"></path></g></svg> 