<?xml version="1.0" encoding="UTF-8" standalone="no"?>
<!-- Created with Inkscape (http://www.inkscape.org/) -->

<svg
   width="256"
   height="256"
   viewBox="0 0 67.733333 67.733333"
   version="1.1"
   id="svg5"
   inkscape:version="1.4.2 (ebf0e940d0, 2025-05-08)"
   xml:space="preserve"
   sodipodi:docname="inlay-icon.svg"
   inkscape:export-filename="inlay-icon.png"
   inkscape:export-xdpi="730.72"
   inkscape:export-ydpi="730.72"
   xmlns:inkscape="http://www.inkscape.org/namespaces/inkscape"
   xmlns:sodipodi="http://sodipodi.sourceforge.net/DTD/sodipodi-0.dtd"
   xmlns="http://www.w3.org/2000/svg"
   xmlns:svg="http://www.w3.org/2000/svg"><sodipodi:namedview
     id="namedview7"
     pagecolor="#ffffff"
     bordercolor="#666666"
     borderopacity="1.0"
     inkscape:showpageshadow="true"
     inkscape:pageopacity="0.0"
     inkscape:pagecheckerboard="false"
     inkscape:deskcolor="#f3f3f3"
     inkscape:document-units="px"
     showgrid="true"
     showborder="false"
     inkscape:zoom="1.728"
     inkscape:cx="313.65741"
     inkscape:cy="311.34259"
     inkscape:window-width="2520"
     inkscape:window-height="1363"
     inkscape:window-x="26"
     inkscape:window-y="23"
     inkscape:window-maximized="0"
     inkscape:current-layer="layer1"><inkscape:grid
       id="grid1"
       units="px"
       originx="0"
       originy="0"
       spacingx="0.26458333"
       spacingy="0.26458333"
       empcolor="#3f3fff"
       empopacity="0.25098039"
       color="#3f3fff"
       opacity="0.12549"
       empspacing="5"
       enabled="true"
       visible="true" /></sodipodi:namedview><defs
     id="defs2"><filter
       inkscape:menu-tooltip="In and out glow with a possible offset and colorizable flood"
       inkscape:menu="Shadows and Glows"
       inkscape:label="Cutout Glow"
       style="color-interpolation-filters:sRGB"
       id="filter4"
       x="-0.17589792"
       y="-0.16028954"
       width="1.4250867"
       height="1.3873664"><feOffset
         dy="3"
         dx="3"
         id="feOffset4" /><feGaussianBlur
         stdDeviation="3"
         result="blur"
         id="feGaussianBlur4" /><feFlood
         flood-color="rgb(0,0,0)"
         flood-opacity="1"
         result="flood"
         id="feFlood4" /><feComposite
         in="flood"
         in2="SourceGraphic"
         operator="in"
         result="composite"
         id="feComposite4" /><feBlend
         in="blur"
         in2="composite"
         mode="normal"
         id="feBlend4" /></filter></defs><g
     inkscape:label="Layer 1"
     inkscape:groupmode="layer"
     id="layer1"><rect
       style="fill:#e6e6e6;fill-rule:evenodd;stroke-width:0.480378;stroke-linejoin:round;stop-color:#000000"
       id="rect8929"
       width="67.493134"
       height="67.493141"
       x="0.24019748"
       y="0.24018949" /><rect
       style="fill:#f2f2f2;fill-opacity:0.803466;fill-rule:evenodd;stroke-width:3.66331;stroke-linejoin:round;stop-color:#000000"
       id="rect13463"
       width="67.493134"
       height="67.493149"
       x="0.24018362"
       y="0.24018602" /><rect
       style="fill:#02477d;fill-rule:evenodd;stroke-width:0.480378;stroke-linejoin:round;stop-color:#000000"
       id="rect8913"
       width="67.252945"
       height="8.4066133"
       x="0.48036256"
       y="59.326717" /><rect
       style="fill:#88cafe;fill-rule:evenodd;stroke-width:0.480378;stroke-linejoin:round;stop-color:#000000"
       id="rect8915"
       width="67.252953"
       height="9.6075649"
       x="0.24019748"
       y="0.24018949" /><circle
       style="fill:#077fdc;fill-rule:evenodd;stroke-width:0.480378;stroke-linejoin:round;stop-color:#000000"
       id="circle8917"
       cx="5.6332321"
       cy="4.4297042"
       r="2.6920893" /><rect
       style="fill:#077fdc;fill-rule:evenodd;stroke-width:0.490078;stroke-linejoin:round;stop-color:#000000"
       id="rect8919"
       width="34.827419"
       height="3.7498088"
       x="11.129869"
       y="2.7498698"
       transform="matrix(1,0,-0.27722385,0.96080536,0,0)" /><rect
       style="fill:#9ed4fe;fill-rule:evenodd;stroke-width:1.60698;stroke-linejoin:round;stop-color:#000000"
       id="rect8925"
       width="17.197916"
       height="38.364582"
       x="3.9687498"
       y="11.906249" /><rect
       style="fill:#ffffff;fill-rule:evenodd;stroke-width:0.52916666;stroke-linejoin:round;stroke-dasharray:4.23333331, 4.23333331;stop-color:#000000"
       id="rect4"
       width="38.40453"
       height="38.40453"
       x="25.115442"
       y="11.886277" /><rect
       style="fill:none;fill-rule:evenodd;stroke:#086287;stroke-width:1.05833333;stroke-linecap:square;stroke-dasharray:6.34999967, 6.34999967;stop-color:#000000"
       id="rect8923"
       width="37.306248"
       height="37.306248"
       x="25.664581"
       y="12.435416" /><g
       id="g3"
       transform="matrix(0.09567321,0,0,0.09567321,6.4307003,1.8124782)">
	<g
   id="g1">
		<path
   class="st0"
   d="m 342.05,470.43 c 0,0 0,0 0,0 -20.72,-0.4 -28.62,-24.34 -29.45,-27.07 L 241.91,211.69 c -4.16,-13.61 -3.21,-24.56 2.83,-32.55 3.9,-5.16 11.67,-11.25 26.56,-10.96 5.45,0.1 9.72,1.07 10.19,1.17 l 235.37,54.83 c 15.13,3.52 24.43,10.66 27.64,21.21 5.09,16.72 -9.08,32.57 -10.72,34.32 l -164.69,176.7 c -8.84,9.48 -17.94,14.2 -27.04,14.02 z M 270.14,192.48 c -4.21,-0.08 -5.58,1.07 -5.84,1.44 -1.19,1.68 -1.45,2.43 1.05,10.62 l 70.69,231.66 c 1.58,4.95 4.2,9.55 6.48,9.72 v 0 c 0.03,0 2.84,-0.02 8.64,-6.23 L 515.85,263.01 c 3.04,-3.34 5.84,-8.78 5.2,-10.46 -0.46,-1.19 -2.35,-2.75 -9.76,-4.48 L 275.92,193.23 v 0 c 0,0 -2.95,-0.69 -5.78,-0.75 z"
   id="path1" />
	</g>
	<g
   id="g2">
		<path
   class="st1"
   d="m 315.61,451.6 c -7.61,2.82 -15.56,3.37 -21.8,1.34 0,0 0,0 0,0 -19.66,-6.41 -20.24,-31.58 -20.24,-34.42 l 0.02,-225.56 23.16,5.19 0.09,220.85 c 0.06,5.18 1.4,10.13 4.56,10.68 v 0 c 0.02,0.01 1.64,0.52 6.35,-1.63 z m 14.1,-35.92 190.44,-110.19 c 3.87,-2.3 8.39,-5.74 8.01,-8.48 -0.06,-0.41 -0.96,-2.89 -5.08,-5.75 l 15.97,-18.15 c 9.02,6.88 13.59,14.89 13.59,23.91 0,17.44 -18.16,28.45 -20.23,29.65 L 337.06,438.9 Z M 500.93,278.76 313.77,169.87 c 0,0 -4.67,-2.98 -7.36,-3.86 -4,-1.3 -5.96,0.02 -6.33,0.27 -1.12,0.75 -1.48,1.34 -1.95,6.84 l -24.11,-4.49 c 1.31,-10.03 5.23,-17.46 11.68,-22.15 5.22,-3.79 14.42,-7.34 28.55,-2.73 5.17,1.69 8.97,3.85 9.38,4.09 l 194.69,112.31 z"
   id="path2" />
	</g>
</g><rect
       style="fill:#9ed4fe;fill-rule:evenodd;stroke-width:1.60698;stroke-linejoin:round;stop-color:#000000"
       id="rect1"
       width="59.531246"
       height="3.9687495"
       x="3.9687498"
       y="52.916664" /></g><style
     type="text/css"
     id="style1">
	.st0{fill:#086287;}
	.st1{fill:#81C459;}
</style></svg>
